<svg xmlns="http://www.w3.org/2000/svg" width="237.1" height="59.57" viewBox="0 0 237.1 59.57">
  <defs>
    <style>
      .\34 86d9af0-82d3-4f6d-a86d-10925902f263 {
        fill: gray;
      }

      .\35 5690b1d-d822-4cb1-8c60-94acfd60ea90 {
        fill: #47a071;
      }

      .\30 562c1d3-8fb0-48d8-b911-89e035bce2bb {
        fill: #f7a45e;
      }

      .cd9e6391-5da0-4925-ab77-ba66a6ae36dc {
        fill: #4e7fff;
      }
    </style>
  </defs>
  <title>Asset 4</title>
  <g id="4eb5a548-9406-402a-8adf-2ab196cee131" data-name="Layer 2">
    <g id="20ab51c5-e4fe-4f56-a93b-2157d1eee30b" data-name="Layer 1">
      <path class="486d9af0-82d3-4f6d-a86d-10925902f263" d="M1.6,59.57A1.61,1.61,0,0,1,0,58v-36a1.61,1.61,0,0,1,3.21,0V58A1.61,1.61,0,0,1,1.6,59.57Z"/>
      <path class="486d9af0-82d3-4f6d-a86d-10925902f263" d="M18.38,40.32A18.38,18.38,0,1,1,36.76,21.94,18.39,18.39,0,0,1,18.38,40.32Zm0-33.55A15.18,15.18,0,1,0,33.55,21.94,15.19,15.19,0,0,0,18.38,6.77Z"/>
      <path class="55690b1d-d822-4cb1-8c60-94acfd60ea90" d="M9.86,9.31,8.27,7A1.94,1.94,0,0,1,9,4.14,20.23,20.23,0,0,1,24.19,2.66a2,2,0,0,1,1.23,2.62L24.31,7.91A1.93,1.93,0,0,1,22,9a13.13,13.13,0,0,0-3.65-.5A13.36,13.36,0,0,0,12.31,10,1.92,1.92,0,0,1,9.86,9.31Z"/>
      <path class="0562c1d3-8fb0-48d8-b911-89e035bce2bb" d="M18.38,42.08h-.47A1.94,1.94,0,0,1,16,39.88l.37-2.83a2,2,0,0,1,2-1.69h0A13.43,13.43,0,0,0,31.8,21.94c0-.34,0-.68,0-1a1.93,1.93,0,0,1,1.54-2.05l2.8-.57A1.94,1.94,0,0,1,38.42,20c.06.64.09,1.29.09,1.93A20.15,20.15,0,0,1,18.38,42.08Z"/>
      <path class="cd9e6391-5da0-4925-ab77-ba66a6ae36dc" d="M5.41,37.35a20.67,20.67,0,0,1-3.61-4,1.94,1.94,0,0,1,.68-2.81L5,29.2a1.94,1.94,0,0,1,2.49.56A13.53,13.53,0,0,0,9.54,32a1.91,1.91,0,0,1,.32,2.53L8.27,36.94A2,2,0,0,1,5.41,37.35Z"/>
      <g>
        <path class="486d9af0-82d3-4f6d-a86d-10925902f263" d="M41.83,0h3.36V27H56.6v3H41.83Z"/>
        <path class="486d9af0-82d3-4f6d-a86d-10925902f263" d="M81.52,29.94h-3V25.45a9.66,9.66,0,0,1-8.9,5.1c-7.08,0-11.29-5.51-11.29-11.49A11.11,11.11,0,0,1,69.63,7.57c4.65,0,7.85,2.71,8.9,5.17V8.17h3ZM61.29,19.1A8.5,8.5,0,0,0,70,27.75a8.13,8.13,0,0,0,7.85-5.3A8.22,8.22,0,0,0,78.61,19a7.69,7.69,0,0,0-.69-3.48,8.38,8.38,0,0,0-8-5.22,8.54,8.54,0,0,0-8.66,8.74Z"/>
        <path class="486d9af0-82d3-4f6d-a86d-10925902f263" d="M87.35,8.17h2.83c0,1.22,0,2.43,0,3.89,1.26-2.84,4.21-4.58,8.09-4.49,6.76.08,9.15,4.69,9.15,10V29.94h-3V18.17c0-4.7-2.1-7.89-7-7.81-4.49,0-7.08,2.75-7.08,7.28v12.3h-3Z"/>
        <path class="486d9af0-82d3-4f6d-a86d-10925902f263" d="M113.16,8.17H116c0,1.22,0,2.43,0,3.89,1.26-2.84,4.21-4.58,8.1-4.49,6.75.08,9.14,4.69,9.14,10V29.94h-2.95V18.17c0-4.7-2.11-7.89-7-7.81-4.49,0-7.08,2.75-7.08,7.28v12.3h-3Z"/>
        <path class="486d9af0-82d3-4f6d-a86d-10925902f263" d="M137.64,19a11.55,11.55,0,0,1,23.1,0,11.55,11.55,0,0,1-23.1,0Zm3,.08a8.58,8.58,0,1,0,17.16,0,8.58,8.58,0,1,0-17.16,0Z"/>
        <path class="486d9af0-82d3-4f6d-a86d-10925902f263" d="M166.93,10.56h-4.29V8.17h4.29V0h2.95V8.17h4.78v2.39h-4.78V29.94h-2.95Z"/>
        <path class="486d9af0-82d3-4f6d-a86d-10925902f263" d="M198.57,29.94h-3V25.45a9.66,9.66,0,0,1-8.91,5.1c-7.08,0-11.28-5.51-11.28-11.49A11.11,11.11,0,0,1,186.67,7.57a9.59,9.59,0,0,1,8.91,5.17V8.17h3ZM178.34,19.1a8.5,8.5,0,0,0,8.74,8.65,8.14,8.14,0,0,0,7.85-5.3,8.38,8.38,0,0,0,.73-3.43,7.83,7.83,0,0,0-.69-3.48,8.39,8.39,0,0,0-8-5.22,8.53,8.53,0,0,0-8.66,8.74Z"/>
        <path class="486d9af0-82d3-4f6d-a86d-10925902f263" d="M206.09,10.56h-4.28V8.17h4.28V0h3V8.17h4.77v2.39h-4.77V29.94h-3Z"/>
        <path class="486d9af0-82d3-4f6d-a86d-10925902f263" d="M217.22,19.91a8.29,8.29,0,0,0,8.5,8.05,8,8,0,0,0,7.48-4.49h3.12a11.6,11.6,0,0,1-4.41,5.3,11.43,11.43,0,0,1-6.19,1.78A11.24,11.24,0,0,1,214.23,19.1a11.44,11.44,0,1,1,22.82.81Zm16.87-2.39a8.48,8.48,0,0,0-16.83,0Z"/>
      </g>
    </g>
  </g>
</svg>
