<svg xmlns="http://www.w3.org/2000/svg" width="373.64" height="93.87" viewBox="0 0 373.64 93.87">
  <defs>
    <style>
      .\30 a7a8cad-d6e0-42e1-b1cc-7f6aaded7e69 {
        fill: gray;
      }

      .b38eb466-8b8f-42da-aa4e-3df577b20cb9 {
        fill: #47a071;
      }

      .f5644503-b978-4577-946e-7a96d916e792 {
        fill: #f7a45e;
      }

      .e86b7b0a-c09b-419e-8d61-090a9124f64c {
        fill: #4e7fff;
      }
    </style>
  </defs>
  <title>Asset 2</title>
  <g id="7a42b988-34e1-4914-8b78-3b65c8f719c8" data-name="Layer 2">
    <g id="9169b8c5-7ade-47b6-97eb-bfee02b552bc" data-name="Layer 1">
      <path class="0a7a8cad-d6e0-42e1-b1cc-7f6aaded7e69" d="M2.53,93.87A2.53,2.53,0,0,1,0,91.34V34.58a2.53,2.53,0,1,1,5.05,0V91.34A2.52,2.52,0,0,1,2.53,93.87Z"/>
      <path class="0a7a8cad-d6e0-42e1-b1cc-7f6aaded7e69" d="M29,63.54a29,29,0,1,1,29-29A29,29,0,0,1,29,63.54Zm0-52.87A23.91,23.91,0,1,0,52.87,34.58,23.94,23.94,0,0,0,29,10.67Z"/>
      <path class="b38eb466-8b8f-42da-aa4e-3df577b20cb9" d="M17.15,17,11.22,8.27a31.77,31.77,0,0,1,30.1-2.92L37.19,15.1a21.2,21.2,0,0,0-20,1.94Z"/>
      <path class="f5644503-b978-4577-946e-7a96d916e792" d="M29,66.31a33.39,33.39,0,0,1-4.12-.26l1.37-10.5a22.81,22.81,0,0,0,2.75.17A21.17,21.17,0,0,0,50.11,34.58a21.78,21.78,0,0,0-.43-4.27l10.37-2.12A31.77,31.77,0,0,1,29,66.31Z"/>
      <path class="e86b7b0a-c09b-419e-8d61-090a9124f64c" d="M11.22,60.89A31.93,31.93,0,0,1,1.07,49.71l9.3-5.05a21.46,21.46,0,0,0,6.78,7.46Z"/>
      <g>
        <path class="0a7a8cad-d6e0-42e1-b1cc-7f6aaded7e69" d="M65.93,0h5.29V42.53h18v4.65H65.93Z"/>
        <path class="0a7a8cad-d6e0-42e1-b1cc-7f6aaded7e69" d="M128.47,47.18h-4.72V40.1c-2.67,5.17-7.9,8-14,8-11.16,0-17.79-8.67-17.79-18.11,0-10.07,7.33-18.11,17.79-18.11,7.33,0,12.37,4.28,14,8.16v-7.2h4.72ZM96.59,30.09c.07,6.19,4.34,13.65,13.78,13.65a12.83,12.83,0,0,0,12.36-8.35A13.06,13.06,0,0,0,123.88,30a12.23,12.23,0,0,0-1.08-5.49,13.23,13.23,0,0,0-12.56-8.22A13.45,13.45,0,0,0,96.59,30Z"/>
        <path class="0a7a8cad-d6e0-42e1-b1cc-7f6aaded7e69" d="M137.65,12.88h4.47c0,1.91,0,3.82-.07,6.12,2-4.46,6.63-7.2,12.76-7.08,10.64.13,14.4,7.4,14.4,15.75V47.18h-4.65V28.63c0-7.4-3.32-12.43-11-12.31-7.08.07-11.16,4.34-11.16,11.48V47.18h-4.72Z"/>
        <path class="0a7a8cad-d6e0-42e1-b1cc-7f6aaded7e69" d="M178.33,12.88h4.46c0,1.91,0,3.82-.06,6.12,2-4.46,6.63-7.2,12.75-7.08,10.65.13,14.41,7.4,14.41,15.75V47.18h-4.65V28.63c0-7.4-3.32-12.43-11-12.31-7.08.07-11.16,4.34-11.16,11.48V47.18h-4.72Z"/>
        <path class="0a7a8cad-d6e0-42e1-b1cc-7f6aaded7e69" d="M216.9,30a18.21,18.21,0,0,1,36.41.06,18.21,18.21,0,0,1-36.41,0Zm4.66.12a13.52,13.52,0,1,0,27-.06,13.52,13.52,0,1,0-27,0Z"/>
        <path class="0a7a8cad-d6e0-42e1-b1cc-7f6aaded7e69" d="M263.07,16.64h-6.76V12.88h6.76V0h4.65V12.88h7.52v3.76h-7.52V47.18h-4.65Z"/>
        <path class="0a7a8cad-d6e0-42e1-b1cc-7f6aaded7e69" d="M312.93,47.18h-4.72V40.1c-2.68,5.17-7.91,8-14,8-11.16,0-17.79-8.67-17.79-18.11,0-10.07,7.33-18.11,17.79-18.11,7.33,0,12.37,4.28,14,8.16v-7.2h4.72ZM281.05,30.09c.06,6.19,4.33,13.65,13.77,13.65a12.85,12.85,0,0,0,12.37-8.35A13.21,13.21,0,0,0,308.33,30a12.1,12.1,0,0,0-1.08-5.49,13.23,13.23,0,0,0-12.56-8.22A13.44,13.44,0,0,0,281.05,30Z"/>
        <path class="0a7a8cad-d6e0-42e1-b1cc-7f6aaded7e69" d="M324.78,16.64H318V12.88h6.75V0h4.66V12.88H337v3.76h-7.52V47.18h-4.66Z"/>
        <path class="0a7a8cad-d6e0-42e1-b1cc-7f6aaded7e69" d="M342.32,31.37c.25,8.61,7.59,12.75,13.39,12.69A12.69,12.69,0,0,0,367.5,37h4.91a17.89,17.89,0,0,1-16.7,11.16c-11.93,0-18.11-9.5-18.11-18a18,18,0,1,1,36,1.28Zm26.59-3.76c-.32-6-6.13-11.86-13.2-11.67-7.4,0-12.88,5.42-13.33,11.67Z"/>
      </g>
    </g>
  </g>
</svg>
